<svg width="26" height="26" viewBox="0 0 26 26" fill="none" xmlns="http://www.w3.org/2000/svg">
<path id="Icon" d="M17.3794 10.3829C17.8108 9.61634 18.1706 8.92459 18.3925 8.39809C19.4699 5.84148 18.4045 2.90069 15.8002 1.70111C13.1959 0.501531 10.5808 1.74539 9.43308 4.14702C7.23831 2.641 4.31057 2.86218 2.69602 5.21237C1.08146 7.56256 1.58818 10.6329 3.79955 12.3083C4.80317 13.0686 6.78807 14.1892 8.65682 15.1864M18.2466 12.4881C17.7596 9.87129 15.533 7.95747 12.7295 8.47764C9.926 8.99781 8.11328 11.5271 8.49228 14.2755C8.79678 16.4836 10.4775 21.6644 11.1266 23.6158C11.2151 23.8821 11.2594 24.0152 11.3471 24.1081C11.4235 24.189 11.525 24.2476 11.6332 24.2733C11.7575 24.3028 11.8949 24.2746 12.1698 24.2181C14.1844 23.8045 19.5114 22.6697 21.5759 21.8293C24.1456 20.7834 25.4717 17.9506 24.4784 15.2609C23.4851 12.5711 20.7564 11.6015 18.2466 12.4881Z" stroke="#F17625" stroke-width="1.61537" stroke-linecap="round" stroke-linejoin="round"/>
</svg>
